<svg height="512" viewBox="0 0 128 128" width="512" xmlns="http://www.w3.org/2000/svg"><g><path d="m76.373 6.5h-53.04a6 6 0 0 0 -6 6v31.167a6 6 0 0 0 6 6h30.041l14.376 8.833v-8.833h8.623a6 6 0 0 0 6-6v-31.167a6 6 0 0 0 -6-6z" fill="#e5371a"/><g fill="#fdddcd"><path d="m75.514 16.884h-51.322a1.75 1.75 0 0 1 0-3.5h51.322a1.75 1.75 0 0 1 0 3.5z"/><path d="m75.514 25.517h-51.322a1.75 1.75 0 0 1 0-3.5h51.322a1.75 1.75 0 0 1 0 3.5z"/><path d="m75.514 34.15h-51.322a1.75 1.75 0 0 1 0-3.5h51.322a1.75 1.75 0 0 1 0 3.5z"/><path d="m75.514 42.783h-51.322a1.75 1.75 0 1 1 0-3.5h51.322a1.75 1.75 0 0 1 0 3.5z"/></g><path d="m25.625 95.186h9.833a19.125 19.125 0 0 1 19.125 19.125v7.189a0 0 0 0 1 0 0h-48.083a0 0 0 0 1 0 0v-7.189a19.125 19.125 0 0 1 19.125-19.125z" fill="#fdddcd"/><circle cx="30.542" cy="86.543" fill="#f4bea6" r="15.085"/><path d="m92.542 95.186h9.833a19.125 19.125 0 0 1 19.125 19.125v7.189a0 0 0 0 1 0 0h-48.083a0 0 0 0 1 0 0v-7.189a19.125 19.125 0 0 1 19.125-19.125z" fill="#fdddcd"/><path d="m115.5 116.061a1.751 1.751 0 0 1 -1.75-1.75 11.349 11.349 0 0 0 -1.607-5.825 1.75 1.75 0 1 1 3-1.8 14.848 14.848 0 0 1 2.1 7.622 1.751 1.751 0 0 1 -1.743 1.753z" fill="#f4bea6"/><circle cx="97.458" cy="86.543" fill="#f4bea6" r="15.085"/><path d="m51.627 22h53.04a6 6 0 0 1 6 6v31.167a6 6 0 0 1 -6 6h-30.041l-14.376 8.833v-8.833h-8.623a6 6 0 0 1 -6-6v-31.167a6 6 0 0 1 6-6z" fill="#f7502f"/><g fill="#fdddcd"><path d="m103.808 32.384h-51.322a1.75 1.75 0 0 1 0-3.5h51.322a1.75 1.75 0 0 1 0 3.5z"/><path d="m103.808 41.017h-51.322a1.75 1.75 0 0 1 0-3.5h51.322a1.75 1.75 0 0 1 0 3.5z"/><path d="m103.808 49.65h-51.322a1.75 1.75 0 0 1 0-3.5h51.322a1.75 1.75 0 0 1 0 3.5z"/><path d="m103.808 58.283h-51.322a1.75 1.75 0 0 1 0-3.5h51.322a1.75 1.75 0 0 1 0 3.5z"/></g></g></svg>