<svg height="512" viewBox="0 0 128 128" width="512" xmlns="http://www.w3.org/2000/svg"><g><rect fill="#0bd5dd" height="115" rx="6" width="115" x="6.5" y="6.5"/><g fill="#efeffb"><path d="m12.5 6.5h103a6 6 0 0 1 6 6v6a0 0 0 0 1 0 0h-115a0 0 0 0 1 0 0v-6a6 6 0 0 1 6-6z"/><g><g><path d="m16.417 58.5h6v25.667h-6z"/><path d="m40.417 62.125h6v22.042h-6z"/><path d="m28.417 66.75h6v17.417h-6z"/></g><g><path d="m111.583 78.25h-53.333a1.75 1.75 0 0 1 0-3.5h53.333a1.75 1.75 0 0 1 0 3.5z"/><path d="m111.583 87.25h-53.333a1.75 1.75 0 0 1 0-3.5h53.333a1.75 1.75 0 0 1 0 3.5z"/><path d="m111.583 96.25h-95.166a1.75 1.75 0 0 1 0-3.5h95.166a1.75 1.75 0 0 1 0 3.5z"/><path d="m111.583 105.25h-95.166a1.75 1.75 0 0 1 0-3.5h95.166a1.75 1.75 0 0 1 0 3.5z"/><path d="m111.583 114.25h-95.166a1.75 1.75 0 0 1 0-3.5h95.166a1.75 1.75 0 0 1 0 3.5z"/><path d="m111.583 69.25h-53.333a1.75 1.75 0 0 1 0-3.5h53.333a1.75 1.75 0 0 1 0 3.5z"/><path d="m111.583 60.25h-53.333a1.75 1.75 0 0 1 0-3.5h53.333a1.75 1.75 0 0 1 0 3.5z"/></g></g><path d="m59.5-8.567h9v95.783h-9z" transform="matrix(0 1 -1 0 103.325 -24.675)"/></g><g fill="#d0d0dd"><circle cx="97.392" cy="12.5" r="1.5"/><circle cx="103.892" cy="12.5" r="1.5"/><circle cx="110.392" cy="12.5" r="1.5"/></g></g></svg>